REM Ripping Tool: trurip

FILE "Tengai Makyou - Ziria Hibaihin (1992)(Hudson)(JP)[AKA Far East of Eden - Ziria][Super CD-ROM²].img" BINARY
  TRACK 01 AUDIO
    INDEX 01 00:00:00
  TRACK 02 MODE1/2352
    INDEX 00 00:44:66
    INDEX 01 00:47:71
  TRACK 03 AUDIO
    INDEX 00 14:47:43
    INDEX 01 14:49:43
  TRACK 04 AUDIO
    INDEX 01 16:21:58
  TRACK 05 AUDIO
    INDEX 01 17:42:22
  TRACK 06 MODE1/2352
    INDEX 00 20:57:12
    INDEX 01 21:00:11

REM DISC HASHES
REM CRC32 : 7c5059c9
REM MD5   : 600c8cb3bffb7634c4c0cd6362682026
REM SHA1  : 5485e160fee637464f1860c937d0f0c75a13f75a

REM Gap Append Method: Prev [crc32]
REM Trk 01: d9db8002
REM Trk 02: f7f10083
REM Trk 03: 3f6b8eaf
REM Trk 04: 54f36aff
REM Trk 05: ac68bf93
REM Trk 06: 8c46dc83

REM Gap Append Method: Prev [md5]
REM Trk 01: d9770cb14e6e504b3779c9f66f6ec82a
REM Trk 02: a6bab4be75bad66d3432806987efe63c
REM Trk 03: 04249c48fd9fbeda3eeb9821969a99c0
REM Trk 04: 8b7b58d15cf4815e992b3f8f7b669b68
REM Trk 05: 1549b84202f381c24376e7d505f1d2f2
REM Trk 06: 3bcc7882ea174cc20733068bc07f086f

REM Gap Append Method: Prev [sha1]
REM Trk 01: 7f109f34620c1432579f61e493bdf8c804a40d6d
REM Trk 02: 8548268a93336f4108df35409f26799e18f63e29
REM Trk 03: 5f7b0ecb4ad229429efd547635609fe5d332694e
REM Trk 04: 5990a0d09aa6e6837efc469134c895f8de240881
REM Trk 05: d65e21b491658f18ee90cb4acf8eae30b9978f55
REM Trk 06: 232ed896ffe4baba47df9b90b9234db4f165008a

REM Gap Append Method: None [crc32]
REM Trk 01: 22144d0f
REM Trk 02: 60fda79c
REM Trk 03: 3f6b8eaf
REM Trk 04: 54f36aff
REM Trk 05: d3621430
REM Trk 06: 8c46dc83
REM Gap 02: 9425a9e7
REM Gap 03: 7abe247f
REM Gap 06: dec653e8

REM Gap Append Method: None [md5]
REM Trk 01: ad1067d0bcc2ffeea540d3b985c51188
REM Trk 02: 58006e0033467da6789da234c57e1847
REM Trk 03: 04249c48fd9fbeda3eeb9821969a99c0
REM Trk 04: 8b7b58d15cf4815e992b3f8f7b669b68
REM Trk 05: fc80e1c97171b4c4308f561c54402af1
REM Trk 06: 3bcc7882ea174cc20733068bc07f086f
REM Gap 02: a2633abbc77bcbc330d2d2e49711051b
REM Gap 03: 9df204fbc98bb8965081cb30a89715fc
REM Gap 06: edbbb533deb5cf6c0cc4ae1bb04d122b

REM Gap Append Method: None [sha1]
REM Trk 01: 3b472f5e80bbf8259e09f8e4f547567bddb02490
REM Trk 02: a8fb34c5b4a3d2a976484cb3bc63fea9251c6ead
REM Trk 03: 5f7b0ecb4ad229429efd547635609fe5d332694e
REM Trk 04: 5990a0d09aa6e6837efc469134c895f8de240881
REM Trk 05: a9bc462528d8861c20f2740120c66dc77fd8322a
REM Trk 06: 232ed896ffe4baba47df9b90b9234db4f165008a
REM Gap 02: 11abf3bdc5b1b27ab93690b7c51efad0f7dd1a7c
REM Gap 03: cbe29e0bd725ef1194f8c47619dd42078e841de2
REM Gap 06: 946767cd296e1637e835cfb721e92bc720377c1a

REM Gap Append Method: Next [crc32]
REM Trk 01: 22144d0f
REM Trk 02: d476b753
REM Trk 03: a623ca97
REM Trk 04: 54f36aff
REM Trk 05: d3621430
REM Trk 06: a34f9601

REM Gap Append Method: Next [md5]
REM Trk 01: ad1067d0bcc2ffeea540d3b985c51188
REM Trk 02: 7d971b01e79186a16ea26e3e84781378
REM Trk 03: 1ced533034651bd5d8e40c0832249828
REM Trk 04: 8b7b58d15cf4815e992b3f8f7b669b68
REM Trk 05: fc80e1c97171b4c4308f561c54402af1
REM Trk 06: aea6161af6c33b63d834216359174155

REM Gap Append Method: Next [sha1]
REM Trk 01: 3b472f5e80bbf8259e09f8e4f547567bddb02490
REM Trk 02: 41609d796d7ee3675e3e9a91d70ebf42fe5fb710
REM Trk 03: dfacc6ba352a78463b40d70148542ca58c712527
REM Trk 04: 5990a0d09aa6e6837efc469134c895f8de240881
REM Trk 05: a9bc462528d8861c20f2740120c66dc77fd8322a
REM Trk 06: 736c1fdebbe04224b3b1cbb55b271c513d9bd57b

